<?xml version="1.0" encoding="UTF-8" standalone="no"?>
<svg
   version="1.1"
   id="Layer_1"
   x="0px"
   y="0px"
   width="100%"
   viewBox="0 0 300 205"
   enable-background="new 0 0 300 205"
   xml:space="preserve"
   sodipodi:docname="geraldine.svg"
   inkscape:version="1.4 (86a8ad7, 2024-10-11)"
   xmlns:inkscape="http://www.inkscape.org/namespaces/inkscape"
   xmlns:sodipodi="http://sodipodi.sourceforge.net/DTD/sodipodi-0.dtd"
   xmlns="http://www.w3.org/2000/svg"
   xmlns:svg="http://www.w3.org/2000/svg"><defs
   id="defs18" /><sodipodi:namedview
   id="namedview18"
   pagecolor="#505050"
   bordercolor="#eeeeee"
   borderopacity="1"
   inkscape:showpageshadow="0"
   inkscape:pageopacity="0"
   inkscape:pagecheckerboard="0"
   inkscape:deskcolor="#505050"
   inkscape:zoom="0.89634145"
   inkscape:cx="-53.551021"
   inkscape:cy="49.646259"
   inkscape:window-width="1920"
   inkscape:window-height="974"
   inkscape:window-x="-11"
   inkscape:window-y="-11"
   inkscape:window-maximized="1"
   inkscape:current-layer="Layer_1" />

<path
   fill="#5a888e"
   opacity="1"
   stroke="none"
   d="m 150.38912,54.551022 c -0.61762,2.727374 -1.57448,5.479316 -2.66547,8.177025 -2.29315,5.670374 -4.64996,11.312665 -1.25987,17.735213 4.89581,-4.099363 9.19626,-8.246696 14.04852,-11.594136 4.04723,-2.792051 8.56473,-5.202225 13.22319,-6.682361 2.34127,-0.74389 6.54775,0.08125 7.92759,1.794257 1.44732,1.796809 1.39135,5.821393 0.48329,8.325002 -4.24535,11.704813 -20.32979,19.639359 -32.46741,16.126576 -2.6192,-0.75803 -4.01126,-0.295582 -5.42674,1.686737 -6.90203,9.666004 -12.59937,19.922055 -15.52941,31.537395 -0.32312,1.28095 -0.87849,2.71253 -0.59296,3.89759 0.77818,3.22968 1.05235,7.32781 3.1784,9.30765 3.0587,2.84833 7.58616,1.55568 10.45659,-1.24385 5.53549,-5.39877 11.19656,-10.85846 15.67582,-17.10324 5.79241,-8.07555 10.39486,-16.997619 15.72893,-25.416278 0.83707,-1.321118 2.8337,-1.907543 4.29416,-2.833687 -0.16241,1.579128 0.12946,3.39748 -0.55684,4.700733 -7.66301,14.551652 -15.47696,29.023832 -23.58496,44.025072 0.0975,0.77499 0.5296,1.04233 0.96176,1.30966 6.12493,-5.27858 12.19428,-10.62439 18.42478,-15.77527 1.15426,-0.95425 2.95852,-1.12229 4.46276,-1.6532 -0.37249,1.4293 -0.35456,3.15518 -1.17933,4.24095 -6.55464,8.62907 -15.27449,14.61661 -24.59267,19.88639 -1.92973,1.09134 -3.54845,2.77705 -5.19806,4.30983 -3.25627,3.02567 -6.13557,6.56567 -9.74238,9.06955 -2.68047,1.8608 -6.52002,2.62506 -8.91649,-0.85281 -2.42439,-3.51835 -0.3595,-6.59205 2.51493,-8.50822 2.83607,-1.8906 6.11596,-3.46469 9.4199,-4.21762 4.33523,-0.98793 7.26603,-2.9553 8.73494,-7.83988 0.29661,-1.01941 0.31221,-1.48383 0.32782,-1.94825 -0.49027,0.22822 -0.98052,0.45644 -1.47078,0.68465 -3.96553,1.51237 -7.83051,3.84455 -11.92002,4.34616 -6.22849,0.76395 -10.79184,-3.1271 -11.10228,-9.42338 -0.23954,-4.85816 -0.044,-10.27978 1.88028,-14.59335 4.43581,-9.94336 10.05065,-19.359976 15.16094,-29.004179 0.65094,-1.228485 1.96934,-2.913136 1.58737,-3.756033 -4.72345,-10.423359 -1.16528,-19.391562 4.31384,-28.391374 0.86652,-0.323323 1.9332,-0.323323 3.39986,-0.323322 m 3.40149,30.788909 c 10.2252,0.161655 20.60371,-6.035872 24.18948,-14.620977 0.50931,-1.219401 0.71814,-2.984684 0.18354,-4.057581 -0.30677,-0.615656 -2.53476,-0.779493 -3.65114,-0.407102 -9.86571,3.290929 -17.28574,9.908116 -24.48032,17.698955 1.47374,0.591737 2.22247,0.892366 3.75844,1.386705 m -22.70989,68.911749 c 2.95644,1.48568 5.88544,-0.0837 7.62743,-5.4392 -2.43448,1.59964 -4.86897,3.19929 -7.62743,5.4392 z"
   id="path2" />











<path
   fill="#000101"
   opacity="1"
   stroke="none"
   d="m 145.09103,102.50758 c 0.23707,-0.50868 0.72732,-0.7369 1.21759,-0.96512 -0.0156,0.46442 -0.0312,0.92884 -0.25156,1.59909 -0.3741,0.0194 -0.54347,-0.16706 -0.96603,-0.63397 z"
   id="path14" />
<path
   fill="#000101"
   opacity="1"
   stroke="none"
   d="m 151.80834,104.5207 c -0.18808,0.043 -0.62022,-0.22438 -0.90005,-0.70504 0.3202,-0.0106 0.48808,0.19207 0.90005,0.70504 z"
   id="path15" />



</svg>
